<svg xmlns="http://www.w3.org/2000/svg" width="183.99" height="184.809" viewBox="0 0 183.99 184.809">
  <path id="arrow-down" d="M183.416,121.286l-2.928-2.928a4.953,4.953,0,0,0-7.011,0L99.9,191.972V36.949A4.963,4.963,0,0,0,94.955,32H90.831a4.963,4.963,0,0,0-4.949,4.949V191.972L12.268,118.358a4.953,4.953,0,0,0-7.011,0l-2.928,2.928a4.953,4.953,0,0,0,0,7.011l87.018,87.059a4.953,4.953,0,0,0,7.011,0L183.375,128.3A4.917,4.917,0,0,0,183.416,121.286Z" transform="translate(-0.875 -32)" fill="#fff"/>
</svg>
